<?xml version="1.0" standalone="no"?>
<!DOCTYPE svg PUBLIC "-//W3C//DTD SVG 20010904//EN"
 "http://www.w3.org/TR/2001/REC-SVG-20010904/DTD/svg10.dtd">
<svg version="1.0" xmlns="http://www.w3.org/2000/svg"
 width="980.000000pt" height="976.000000pt" viewBox="0 0 980.000000 976.000000"
 preserveAspectRatio="xMidYMid meet">
<metadata>
Created by potrace 1.16, written by Peter Selinger 2001-2019
</metadata>
<g transform="translate(0.000000,976.000000) scale(0.100000,-0.100000)"
fill="#000000" stroke="none">
<path d="M4715 9754 c-279 -29 -469 -73 -695 -161 -883 -347 -1518 -1158
-1619 -2068 -5 -49 -13 -196 -16 -325 -8 -263 5 -412 51 -619 54 -241 189
-645 300 -895 52 -117 262 -520 482 -926 519 -959 1652 -2974 1664 -2962 14
15 720 1266 1118 1982 463 834 785 1431 948 1755 179 358 359 904 407 1236 18
127 21 548 4 715 -44 450 -211 873 -493 1249 -120 160 -356 396 -513 512 -351
261 -739 426 -1143 488 -102 15 -414 27 -495 19z m427 -1478 c375 -96 669
-387 774 -767 32 -116 43 -322 25 -450 -53 -369 -320 -708 -664 -843 -148 -59
-209 -69 -392 -70 -154 0 -180 3 -269 27 -304 82 -562 297 -696 580 -281 591
16 1297 633 1503 124 41 217 54 362 49 95 -3 156 -10 227 -29z"/>
<path d="M3495 2719 c-1920 -169 -3279 -636 -3472 -1192 -24 -71 -24 -204 1
-275 103 -298 582 -597 1302 -812 1566 -469 4044 -574 6011 -255 1213 197
2093 542 2364 928 382 544 -386 1090 -1981 1411 -485 97 -1241 194 -1645 210
-127 5 -113 3 165 -25 991 -98 1846 -327 2269 -606 645 -427 290 -918 -899
-1244 -989 -271 -2450 -372 -3795 -264 -1126 92 -2057 324 -2525 630 -110 72
-242 207 -279 285 -116 244 41 481 459 694 488 249 1279 432 2275 525 85 8 86
8 25 9 -36 0 -159 -9 -275 -19z"/>
</g>
</svg>
