<?xml version="1.0" standalone="no"?>
<!DOCTYPE svg PUBLIC "-//W3C//DTD SVG 20010904//EN"
 "http://www.w3.org/TR/2001/REC-SVG-20010904/DTD/svg10.dtd">
<svg version="1.0" xmlns="http://www.w3.org/2000/svg"
 width="512.000000pt" height="512.000000pt" viewBox="0 0 512.000000 512.000000"
 preserveAspectRatio="xMidYMid meet">
<metadata>
Created by potrace 1.16, written by Peter Selinger 2001-2019
</metadata>
<g transform="translate(0.000000,512.000000) scale(0.100000,-0.100000)"
fill="#000000" stroke="none">
<path d="M1927 5100 c-446 -70 -760 -437 -816 -952 -13 -117 -14 -268 -2 -268
4 0 21 28 36 63 41 91 115 196 192 272 347 344 936 391 1286 103 l28 -23 -148
3 c-286 7 -517 -44 -754 -164 -345 -176 -557 -461 -624 -839 -30 -172 -17
-464 31 -675 38 -165 112 -381 191 -557 53 -118 73 -141 73 -86 0 35 46 262
71 348 165 573 525 1017 1036 1278 161 82 331 143 497 177 176 36 507 -78 776
-268 180 -127 418 -385 532 -577 161 -270 262 -583 284 -877 4 -54 10 -98 14
-98 10 0 146 197 209 301 101 170 179 365 217 544 27 127 23 325 -8 445 -88
329 -324 585 -713 771 -308 147 -724 228 -957 187 -71 -13 -76 -13 -68 3 22
39 108 111 179 147 373 194 904 95 1361 -253 86 -65 84 -65 76 -9 -11 74 -53
249 -83 339 -60 184 -152 343 -260 448 -95 93 -180 142 -310 179 -117 34 -317
31 -465 -5 -204 -50 -455 -161 -634 -281 l-79 -52 -120 79 c-200 132 -424 232
-624 278 -99 23 -332 33 -424 19z"/>
<path d="M2970 3525 l-135 -63 -7 -144 c-37 -744 -207 -1371 -498 -1830 -104
-163 -182 -261 -320 -399 -176 -176 -357 -306 -572 -410 l-83 -40 230 5 c341
6 582 46 1010 167 273 78 266 75 300 122 213 293 352 690 425 1207 38 268 53
827 30 1131 -16 207 -5 185 -122 254 -56 33 -107 61 -112 62 -6 1 -72 -27
-146 -62z"/>
<path d="M20 851 c0 -17 89 -139 160 -220 252 -285 589 -486 975 -580 176 -43
311 -54 579 -48 427 9 660 51 1311 236 482 137 646 170 885 178 463 17 888
-113 1133 -345 39 -38 57 -50 57 -38 0 41 -184 271 -308 386 -318 293 -663
432 -1077 433 -248 1 -371 -25 -914 -189 -408 -124 -684 -185 -981 -216 -150
-15 -555 -15 -695 0 -460 52 -806 170 -1060 362 -36 27 -65 46 -65 41z"/>
</g>
</svg>
