<?xml version="1.0" standalone="no"?>
<!DOCTYPE svg PUBLIC "-//W3C//DTD SVG 20010904//EN"
 "http://www.w3.org/TR/2001/REC-SVG-20010904/DTD/svg10.dtd">
<svg version="1.0" xmlns="http://www.w3.org/2000/svg"
 width="177.000000pt" height="190.000000pt" viewBox="0 0 177.000000 190.000000"
 preserveAspectRatio="xMidYMid meet">
<metadata>
Created by potrace 1.16, written by Peter Selinger 2001-2019
</metadata>
<g transform="translate(0.000000,190.000000) scale(0.100000,-0.100000)"
fill="#000000" stroke="none">
<path d="M156 1878 c-13 -18 -16 -51 -16 -150 l0 -128 -54 0 c-64 0 -86 -16
-86 -64 0 -51 19 -68 84 -74 l56 -4 0 -124 0 -124 -54 0 c-64 0 -86 -16 -86
-64 0 -51 19 -68 84 -74 l56 -4 0 -119 0 -119 -48 0 c-65 0 -92 -20 -92 -69 0
-52 23 -71 88 -71 l52 0 0 -125 0 -125 -53 0 c-64 0 -87 -19 -87 -73 0 -46 28
-67 92 -67 l48 0 0 -125 c0 -120 1 -127 25 -150 l24 -25 766 0 766 0 25 25 24
24 -2 912 c-3 888 -3 911 -22 925 -17 12 -142 14 -797 14 l-778 0 -15 -22z
m1464 -928 l0 -810 -670 0 -670 0 0 80 0 80 55 0 c42 0 60 5 75 20 27 27 25
66 -5 95 -19 20 -34 25 -75 25 l-50 0 0 125 0 125 59 0 c51 0 62 3 75 22 23
32 20 65 -9 93 -19 20 -34 25 -75 25 l-50 0 0 120 0 120 50 0 c41 0 56 5 75
25 29 28 32 61 9 93 -13 19 -24 22 -75 22 l-59 0 0 125 0 125 50 0 c41 0 56 5
75 25 30 29 32 68 5 95 -15 15 -33 20 -75 20 l-55 0 0 80 0 80 670 0 670 0 0
-810z"/>
<path d="M885 1461 c-94 -42 -145 -125 -145 -236 0 -88 22 -137 83 -191 165
-145 426 -32 427 185 0 29 -5 71 -12 93 -15 51 -82 126 -133 149 -54 25 -166
25 -220 0z"/>
<path d="M715 909 c-57 -50 -82 -117 -100 -267 -21 -179 -17 -186 127 -208
198 -30 572 -10 619 32 26 23 27 52 9 191 -20 150 -34 187 -89 242 l-41 41
-62 -34 c-125 -68 -242 -69 -365 -1 l-63 35 -35 -31z"/>
</g>
</svg>
