<?xml version="1.0" standalone="no"?>
<!DOCTYPE svg PUBLIC "-//W3C//DTD SVG 20010904//EN"
 "http://www.w3.org/TR/2001/REC-SVG-20010904/DTD/svg10.dtd">
<svg version="1.0" xmlns="http://www.w3.org/2000/svg"
 width="512.000000pt" height="512.000000pt" viewBox="0 0 512.000000 512.000000"
 preserveAspectRatio="xMidYMid meet">
<metadata>
Created by potrace 1.16, written by Peter Selinger 2001-2019
</metadata>
<g transform="translate(0.000000,512.000000) scale(0.100000,-0.100000)"
fill="#000000" stroke="none">
<path d="M1558 4758 c-45 -37 -187 -285 -253 -443 -66 -156 -89 -251 -89 -365
0 -77 4 -104 22 -145 26 -57 82 -118 123 -136 24 -10 29 -17 29 -48 0 -20 4
-41 8 -46 4 -6 76 -68 160 -139 204 -170 196 -172 200 50 l2 172 29 12 c41 17
97 78 123 135 33 73 30 216 -7 340 -50 172 -176 429 -282 579 -35 50 -41 53
-65 34z m109 -425 c70 -146 104 -256 110 -354 6 -99 -7 -137 -60 -169 -42 -26
-57 -26 -24 0 74 58 54 214 -51 397 -56 98 -70 95 -135 -20 -57 -103 -87 -191
-87 -259 0 -65 15 -95 60 -126 29 -20 30 -23 10 -17 -40 12 -74 31 -95 55 -17
19 -20 36 -20 124 1 124 23 194 127 404 l71 143 25 -43 c13 -24 45 -85 69
-135z"/>
<path d="M2532 4741 c-40 -42 -167 -266 -223 -390 -76 -170 -101 -267 -103
-391 -1 -90 2 -112 22 -155 26 -57 82 -118 123 -136 24 -10 29 -17 29 -48 0
-20 4 -41 8 -46 4 -6 76 -68 160 -139 204 -171 196 -173 200 51 2 164 3 172
23 178 32 11 98 74 119 116 49 95 45 241 -11 417 -53 163 -260 549 -305 566
-10 4 -26 -5 -42 -23z m153 -473 c104 -245 112 -403 23 -458 -43 -26 -58 -26
-25 1 67 52 57 174 -28 347 -74 150 -88 153 -155 36 -62 -108 -90 -192 -90
-269 0 -58 3 -68 32 -101 31 -36 32 -37 8 -29 -40 12 -77 54 -89 101 -24 94
25 270 136 487 l66 128 38 -68 c21 -37 59 -116 84 -175z"/>
<path d="M3509 4728 c-94 -130 -225 -387 -272 -533 -51 -158 -59 -300 -22
-388 20 -49 87 -121 125 -137 26 -11 30 -17 30 -54 0 -41 0 -42 160 -174 213
-177 204 -179 208 43 l2 171 36 19 c49 26 100 88 118 143 35 101 13 288 -53
455 -82 206 -252 497 -291 497 -5 0 -24 -19 -41 -42z m121 -370 c85 -175 120
-280 127 -378 7 -91 -10 -140 -59 -170 -46 -28 -51 -25 -18 10 61 66 44 193
-51 370 -38 70 -54 89 -71 90 -31 1 -141 -211 -157 -304 -13 -72 -1 -128 36
-162 40 -37 1 -31 -42 7 -78 68 -68 203 31 436 48 113 117 243 130 243 3 0 36
-64 74 -142z"/>
<path d="M1400 3491 c-5 -11 -10 -52 -10 -91 0 -83 -14 -66 183 -230 84 -70
147 -115 160 -115 21 0 22 5 24 95 l3 95 -160 133 c-88 72 -166 132 -174 132
-9 0 -20 -9 -26 -19z"/>
<path d="M2392 3498 c-7 -7 -12 -44 -12 -94 l0 -83 160 -133 c100 -83 169
-133 183 -133 21 0 22 4 25 95 l2 95 -160 133 c-89 72 -167 132 -174 132 -6 0
-17 -5 -24 -12z"/>
<path d="M3382 3498 c-7 -7 -12 -44 -12 -95 l0 -82 148 -123 c81 -68 155 -129
164 -136 10 -8 26 -11 38 -7 19 6 21 13 18 98 l-3 92 -158 132 c-87 73 -164
133 -171 133 -6 0 -17 -5 -24 -12z"/>
<path d="M1396 3234 c-3 -9 -6 -49 -6 -89 l0 -74 66 -58 66 -58 -134 -7 c-152
-7 -220 -23 -333 -77 -137 -65 -240 -177 -284 -309 -21 -60 -21 -80 -21 -882
l0 -820 -215 0 -215 0 -6 -26 c-10 -40 11 -191 36 -256 26 -71 103 -158 168
-190 l47 -23 2000 0 2000 0 53 29 c66 37 107 82 143 161 35 74 51 154 47 237
l-3 63 -217 3 -217 2 -4 833 c-3 735 -5 838 -19 886 -44 143 -123 245 -238
305 -88 47 -177 66 -309 66 -90 0 -102 2 -91 15 7 8 10 21 7 29 -3 7 -70 68
-149 135 -111 94 -149 121 -168 119 -24 -3 -25 -5 -28 -91 l-3 -87 43 -39 c24
-22 54 -48 68 -60 l25 -20 -400 -1 c-310 0 -396 3 -387 12 7 7 12 18 12 25 0
21 -290 263 -316 263 -29 0 -34 -16 -34 -105 0 -81 -5 -74 105 -168 l30 -26
-391 -1 -391 0 4 28 c3 24 -13 40 -143 150 -144 121 -184 142 -198 106z m920
-1503 c40 -29 87 -94 185 -255 136 -224 291 -310 479 -262 127 32 199 101 331
319 113 188 156 227 246 227 72 0 136 -36 246 -138 54 -49 122 -103 152 -119
l55 -28 0 -297 0 -298 -1455 0 -1455 0 0 410 0 411 95 -85 c151 -134 250 -173
420 -163 147 8 226 47 388 195 95 87 141 110 223 111 41 1 59 -5 90 -28z"/>
</g>
</svg>
