<?xml version="1.0" standalone="no"?>
<!DOCTYPE svg PUBLIC "-//W3C//DTD SVG 20010904//EN"
 "http://www.w3.org/TR/2001/REC-SVG-20010904/DTD/svg10.dtd">
<svg version="1.0" xmlns="http://www.w3.org/2000/svg"
 width="512.000000pt" height="512.000000pt" viewBox="0 0 512.000000 512.000000"
 preserveAspectRatio="xMidYMid meet">
<metadata>
Created by potrace 1.16, written by Peter Selinger 2001-2019
</metadata>
<g transform="translate(0.000000,512.000000) scale(0.100000,-0.100000)"
fill="#000000" stroke="none">
<path d="M350 5097 c-159 -54 -288 -188 -334 -346 -14 -49 -16 -266 -16 -2192
0 -2100 0 -2138 20 -2200 49 -159 189 -296 349 -343 49 -14 266 -16 2192 -16
2100 0 2138 0 2200 20 159 49 296 189 343 349 14 49 16 266 16 2191 0 1925 -2
2142 -16 2191 -47 160 -184 300 -343 349 -62 20 -99 20 -2205 20 l-2141 -1
-65 -22z m2648 -770 c274 -73 468 -258 548 -522 27 -89 28 -94 33 -455 6 -351
7 -367 28 -406 44 -82 136 -134 238 -134 102 0 199 -67 230 -160 14 -43 16
-106 13 -527 -4 -469 -4 -479 -27 -548 -46 -138 -103 -234 -192 -324 -93 -93
-223 -165 -364 -203 -73 -19 -1817 -19 -1890 0 -141 38 -271 110 -364 203 -89
90 -146 185 -192 324 l-24 70 -3 1005 c-2 891 -1 1014 13 1085 32 158 93 273
205 386 119 120 271 196 437 218 37 5 334 8 658 7 513 -2 598 -5 653 -19z"/>
<path d="M1950 3571 c-69 -24 -133 -90 -150 -152 -7 -25 -10 -76 -8 -116 6
-92 41 -154 112 -198 l49 -30 426 0 c417 0 427 0 466 22 82 44 124 119 125
223 0 118 -36 188 -123 236 l-52 29 -395 2 c-367 3 -399 2 -450 -16z"/>
<path d="M1950 2290 c-69 -23 -133 -88 -150 -151 -7 -25 -10 -76 -8 -116 6
-92 41 -154 112 -198 l49 -30 607 0 607 0 49 30 c71 44 106 106 112 198 6 101
-10 152 -67 208 -79 80 -72 79 -705 79 -514 -1 -555 -2 -606 -20z"/>
</g>
</svg>
