<?xml version="1.0" standalone="no"?>
<!DOCTYPE svg PUBLIC "-//W3C//DTD SVG 20010904//EN"
 "http://www.w3.org/TR/2001/REC-SVG-20010904/DTD/svg10.dtd">
<svg version="1.0" xmlns="http://www.w3.org/2000/svg"
 width="221.000000pt" height="202.000000pt" viewBox="0 0 221.000000 202.000000"
 preserveAspectRatio="xMidYMid meet">
<metadata>
Created by potrace 1.16, written by Peter Selinger 2001-2019
</metadata>
<g transform="translate(0.000000,202.000000) scale(0.100000,-0.100000)"
fill="#000000" stroke="none">
<path d="M949 1865 l-143 -105 -141 -1 c-225 0 -247 -17 -255 -187 l-5 -106
-160 -118 c-88 -64 -161 -121 -162 -125 -1 -4 86 -72 193 -150 l194 -142 0
364 c0 352 1 366 20 385 20 20 33 20 624 20 560 0 605 -1 625 -17 21 -18 21
-25 24 -384 l2 -365 197 144 196 145 -169 124 -169 124 0 104 c0 96 -2 106
-26 134 -35 42 -77 51 -233 51 l-133 0 -72 52 c-185 135 -220 158 -241 158
-13 0 -83 -44 -166 -105z"/>
<path d="M1031 1425 c-100 -28 -162 -83 -210 -185 -23 -48 -26 -68 -26 -155 0
-93 2 -104 31 -155 60 -107 158 -154 319 -154 77 0 99 4 150 28 61 27 145 99
145 123 0 25 -64 15 -91 -13 -44 -49 -114 -74 -205 -74 -137 0 -212 34 -261
118 -25 41 -28 57 -28 132 0 73 4 92 27 136 60 115 177 170 303 144 149 -31
224 -180 152 -303 -28 -48 -65 -77 -97 -77 -11 0 -20 2 -20 5 0 2 14 66 30
142 17 75 30 141 30 145 0 4 -15 8 -34 8 -26 0 -36 -5 -41 -21 l-7 -21 -22 21
c-52 49 -133 35 -194 -34 -113 -129 -61 -331 80 -312 22 3 48 13 58 22 17 16
20 15 39 -4 44 -44 131 -21 198 52 122 132 77 346 -88 416 -66 29 -168 36
-238 16z m116 -209 c23 -20 28 -32 28 -73 0 -129 -126 -215 -172 -118 -36 76
29 210 104 214 7 1 25 -10 40 -23z"/>
<path d="M50 635 c0 -301 4 -545 8 -543 17 6 711 523 712 529 0 5 -528 417
-682 532 l-38 29 0 -547z"/>
<path d="M1817 902 c-339 -262 -356 -277 -340 -293 10 -9 171 -130 358 -269
l340 -251 3 276 c1 152 1 397 0 544 l-3 268 -358 -275z"/>
<path d="M458 322 c-197 -147 -363 -273 -370 -279 -10 -10 197 -13 1032 -13
574 0 1041 2 1039 4 -2 2 -170 128 -374 279 -315 235 -373 274 -387 264 -9 -7
-71 -54 -138 -104 -74 -57 -130 -93 -145 -93 -15 0 -75 40 -160 105 -75 58
-137 105 -138 104 -1 0 -163 -121 -359 -267z"/>
</g>
</svg>
