<?xml version="1.0" standalone="no"?>
<!DOCTYPE svg PUBLIC "-//W3C//DTD SVG 20010904//EN"
 "http://www.w3.org/TR/2001/REC-SVG-20010904/DTD/svg10.dtd">
<svg version="1.0" xmlns="http://www.w3.org/2000/svg"
 width="1551.000000pt" height="1513.000000pt" viewBox="0 0 1551.000000 1513.000000"
 preserveAspectRatio="xMidYMid meet">

<g transform="translate(0.000000,1513.000000) scale(0.100000,-0.100000)"
fill="#000000" stroke="none">
<path d="M14213 15096 c-86 -34 -159 -83 -224 -152 -114 -121 -156 -226 -170
-428 -18 -258 -80 -491 -193 -722 -199 -410 -497 -697 -902 -871 -339 -145
-678 -206 -1239 -223 -476 -13 -590 -19 -775 -36 -1015 -92 -1870 -409 -2487
-921 -145 -120 -366 -351 -473 -495 -317 -424 -513 -925 -570 -1462 -13 -119
-8 -216 17 -299 79 -269 343 -453 622 -433 219 16 406 143 500 338 44 93 57
149 66 293 36 569 440 1126 1036 1426 461 232 1141 369 1834 369 213 0 567 18
725 36 899 103 1644 436 2186 978 320 320 551 696 698 1138 132 396 199 855
151 1043 -44 171 -167 326 -319 401 l-80 39 -170 2 c-160 3 -175 1 -233 -21z"/>
<path d="M3908 9595 c-553 -79 -1135 -425 -1718 -1021 -1111 -1136 -1894
-2873 -2115 -4694 -48 -397 -74 -962 -56 -1208 51 -699 349 -1458 788 -2007
104 -130 325 -343 438 -423 109 -78 279 -162 400 -199 85 -26 101 -27 290 -28
170 0 217 4 313 23 298 60 576 190 868 407 195 145 319 259 799 735 614 608
793 772 1089 992 858 641 1802 919 2974 877 1093 -40 1990 -391 2827 -1109
199 -171 351 -316 780 -745 521 -521 701 -680 968 -856 225 -147 471 -251 717
-301 99 -20 144 -23 315 -22 188 0 205 2 290 27 455 138 902 591 1233 1253
204 407 339 857 383 1274 25 236 2 863 -46 1289 -208 1824 -1027 3627 -2165
4761 -210 210 -382 358 -576 497 -308 220 -661 389 -949 452 -414 91 -888 20
-1295 -196 -251 -132 -444 -278 -850 -643 -473 -424 -663 -567 -936 -705 -529
-265 -1164 -286 -1710 -55 -317 134 -522 282 -1093 792 -290 259 -407 353
-594 479 -284 189 -550 296 -857 344 -146 23 -391 28 -512 10z m7644 -2220
c145 -29 269 -96 378 -205 157 -158 227 -340 217 -570 -14 -331 -217 -592
-537 -692 -64 -19 -96 -23 -215 -23 -119 0 -151 4 -215 23 -253 79 -432 258
-512 512 -19 64 -23 96 -23 215 0 119 4 151 23 215 87 275 278 463 547 535 58
16 232 11 337 -10z m-6822 -740 l0 -605 605 0 605 0 0 -605 0 -605 -605 0
-605 0 -2 -607 -3 -608 -602 -3 -603 -2 -2 607 -3 608 -607 3 -608 2 0 605 0
605 610 0 610 0 0 605 0 605 605 0 605 0 0 -605z m5655 -480 c257 -71 460
-277 531 -536 28 -100 26 -301 -4 -404 -61 -212 -198 -374 -397 -471 -122 -60
-208 -77 -365 -72 -107 4 -137 9 -213 35 -123 43 -190 86 -287 183 -98 98
-139 164 -184 287 -29 84 -31 95 -31 238 0 113 4 166 18 215 69 249 259 449
507 532 47 15 79 17 210 14 103 -3 175 -10 215 -21z m2420 1 c260 -71 469
-282 536 -543 26 -105 26 -272 -1 -379 -11 -43 -39 -117 -62 -164 -34 -69 -60
-103 -138 -180 -77 -78 -111 -104 -180 -138 -133 -66 -227 -86 -385 -79 -144
6 -205 21 -320 80 -183 93 -318 259 -377 462 -30 106 -32 306 -4 405 75 260
247 446 496 537 60 22 76 23 220 20 100 -3 176 -10 215 -21z m-1292 -1197
c309 -48 558 -283 622 -587 31 -143 12 -336 -46 -467 -56 -130 -183 -273 -303
-344 -82 -49 -201 -89 -303 -101 -157 -20 -341 19 -479 101 -79 47 -186 149
-238 228 -207 312 -155 737 121 991 88 81 159 124 265 161 71 24 99 29 186 29
57 0 136 -5 175 -11z"/>
</g>
</svg>
