<?xml version="1.0" standalone="no"?>
<!DOCTYPE svg PUBLIC "-//W3C//DTD SVG 20010904//EN"
 "http://www.w3.org/TR/2001/REC-SVG-20010904/DTD/svg10.dtd">
<svg version="1.0" xmlns="http://www.w3.org/2000/svg"
 width="237.000000pt" height="213.000000pt" viewBox="0 0 237.000000 213.000000"
 preserveAspectRatio="xMidYMid meet">
<metadata>
Created by potrace 1.16, written by Peter Selinger 2001-2019
</metadata>
<g transform="translate(0.000000,213.000000) scale(0.100000,-0.100000)"
fill="#000000" stroke="none">
<path d="M345 1936 c-39 -17 -80 -65 -95 -111 -23 -71 17 -167 83 -198 19 -10
60 -17 90 -17 152 0 223 187 111 292 -52 48 -126 61 -189 34z"/>
<path d="M1040 1928 c-76 -39 -112 -117 -90 -197 13 -51 55 -101 83 -101 53 0
257 126 257 158 -1 26 -35 95 -56 114 -27 24 -88 48 -122 48 -15 0 -48 -10
-72 -22z"/>
<path d="M1885 1936 c-39 -17 -80 -65 -95 -111 -23 -71 17 -167 83 -198 19
-10 60 -17 90 -17 71 0 127 38 152 104 55 144 -90 283 -230 222z"/>
<path d="M1367 1833 c-111 -138 -276 -235 -447 -262 -73 -12 -90 -24 -90 -62
0 -48 25 -62 94 -56 174 17 427 155 513 281 37 54 41 85 15 109 -27 25 -61 21
-85 -10z"/>
<path d="M1536 1821 c-4 -5 -9 -30 -12 -55 -5 -34 -2 -52 11 -72 12 -19 14
-29 6 -37 -19 -19 -12 -62 14 -87 19 -18 22 -27 14 -41 -8 -16 -6 -19 16 -19
14 0 55 -15 92 -34 93 -47 142 -58 236 -54 l81 3 28 45 c31 49 66 70 104 62
32 -6 64 -47 64 -82 0 -36 -70 -141 -125 -187 l-43 -36 5 -106 c4 -93 2 -116
-20 -191 -45 -153 -62 -359 -42 -511 8 -68 41 -198 62 -250 29 -72 117 -90
163 -32 24 31 25 65 4 124 -32 92 -47 185 -47 309 -1 162 28 320 57 320 23 0
66 41 81 78 25 58 30 223 11 323 -24 128 -51 198 -94 242 -59 61 -114 68 -207
26 -26 -12 -64 -19 -111 -19 -59 0 -80 5 -130 30 -32 17 -76 46 -97 65 -38 33
-38 35 -26 68 7 21 9 51 5 80 l-7 47 -44 0 c-24 0 -46 -4 -49 -9z"/>
<path d="M741 1735 c-112 -114 -263 -193 -413 -216 -84 -13 -98 -21 -98 -60 0
-48 25 -62 99 -56 158 13 338 101 477 230 72 67 84 84 84 111 0 40 -16 56 -54
56 -25 -1 -44 -14 -95 -65z"/>
<path d="M230 1574 c-73 -32 -103 -77 -141 -214 -19 -69 -23 -109 -23 -216 0
-118 3 -135 25 -180 17 -34 35 -54 60 -67 34 -16 37 -22 52 -92 38 -173 32
-341 -20 -524 l-26 -95 19 -35 c37 -70 130 -64 167 10 10 20 29 88 44 150 45
196 36 424 -23 623 -30 100 -30 208 2 358 l5 27 47 -36 c86 -66 199 -103 314
-103 53 0 88 24 88 60 0 39 -35 60 -98 60 -91 0 -180 31 -238 82 -21 18 -25
19 -97 4 -42 -9 -87 -16 -101 -16 -34 0 -75 38 -82 77 -9 46 38 93 93 93 48 0
70 12 51 27 -24 20 -81 24 -118 7z"/>
<path d="M1191 1514 c-80 -40 -190 -76 -273 -89 l-38 -6 0 -630 0 -631 29 -29
c37 -37 79 -38 120 -3 l31 26 0 379 0 379 29 0 28 0 62 -377 c61 -373 62 -378
92 -405 40 -38 82 -37 120 1 20 20 29 40 29 61 0 17 -27 193 -60 390 -57 341
-60 367 -60 530 l0 172 72 -67 c75 -70 199 -138 249 -138 37 0 59 19 59 52 0
37 -5 42 -101 88 -109 54 -199 144 -255 258 -21 42 -40 77 -43 79 -3 1 -44
-17 -90 -40z"/>
<path d="M2063 1484 c-67 -95 -95 -124 -147 -149 -49 -24 -64 -27 -118 -22
-35 4 -78 9 -96 13 -41 8 -72 -16 -72 -56 0 -35 16 -48 82 -66 170 -45 344 33
432 196 21 38 24 53 17 73 -17 44 -71 50 -98 11z"/>
</g>
</svg>
