<?xml version="1.0" standalone="no"?>
<!DOCTYPE svg PUBLIC "-//W3C//DTD SVG 20010904//EN"
 "http://www.w3.org/TR/2001/REC-SVG-20010904/DTD/svg10.dtd">
<svg version="1.0" xmlns="http://www.w3.org/2000/svg"
 width="481.000000pt" height="428.000000pt" viewBox="0 0 481.000000 428.000000"
 preserveAspectRatio="xMidYMid meet">
<metadata>
Created by potrace 1.16, written by Peter Selinger 2001-2019
</metadata>
<g transform="translate(0.000000,428.000000) scale(0.100000,-0.100000)"
fill="#000000" stroke="none">
<path d="M830 4244 c-285 -62 -538 -256 -683 -524 -115 -213 -157 -567 -74
-625 32 -23 84 -19 111 8 21 21 24 34 29 168 6 159 23 231 83 352 124 252 363
423 648 463 63 9 96 39 96 89 0 25 -8 44 -25 60 -28 29 -81 32 -185 9z"/>
<path d="M1755 3919 c-440 -176 -819 -330 -842 -341 -86 -43 -136 -124 -136
-221 1 -59 27 -128 478 -1252 753 -1876 757 -1886 790 -1928 45 -60 115 -92
195 -91 61 0 109 18 855 318 435 175 809 327 833 338 52 25 118 98 132 147 5
20 10 60 10 89 0 56 3 48 -415 1087 -84 209 -300 747 -480 1195 -180 448 -335
831 -345 850 -40 78 -128 129 -220 130 -50 0 -138 -33 -855 -321z m842 -161
c23 -26 953 -2342 953 -2374 0 -11 -6 -28 -12 -37 -7 -9 -311 -137 -676 -283
-765 -308 -700 -293 -751 -171 -33 82 -277 688 -661 1645 -300 748 -286 690
-177 736 300 126 1258 505 1278 505 15 1 34 -9 46 -21z m473 -2910 c57 -30 82
-65 88 -126 18 -194 -265 -238 -308 -48 -21 95 55 191 155 195 12 1 41 -9 65
-21z"/>
<path d="M941 3909 c-257 -50 -468 -247 -531 -495 -22 -87 -27 -232 -8 -267
27 -52 92 -64 132 -24 20 20 24 37 28 117 10 162 63 279 169 374 59 53 173
111 239 121 25 4 60 14 77 22 63 29 61 129 -3 153 -29 11 -42 11 -103 -1z"/>
<path d="M4600 1315 c-22 -23 -22 -29 -14 -97 15 -122 10 -304 -10 -383 -72
-279 -270 -495 -543 -591 -54 -19 -106 -44 -115 -55 -41 -49 -4 -139 58 -139
43 0 134 30 229 75 415 200 647 673 548 1117 -17 77 -37 98 -93 98 -26 0 -43
-7 -60 -25z"/>
<path d="M4254 1245 c-24 -24 -24 -26 -18 -147 6 -101 4 -134 -10 -183 -26
-88 -59 -146 -121 -213 -62 -67 -118 -104 -203 -133 -75 -26 -102 -52 -102
-101 0 -72 56 -101 142 -73 209 68 376 234 444 441 25 78 29 103 29 209 0 130
-13 185 -48 210 -33 23 -84 19 -113 -10z"/>
</g>
</svg>
