<?xml version="1.0" standalone="no"?>
<!DOCTYPE svg PUBLIC "-//W3C//DTD SVG 20010904//EN"
 "http://www.w3.org/TR/2001/REC-SVG-20010904/DTD/svg10.dtd">
<svg version="1.0" xmlns="http://www.w3.org/2000/svg"
 width="2400.000000pt" height="2271.000000pt" viewBox="0 0 2400.000000 2271.000000"
 preserveAspectRatio="xMidYMid meet">
<metadata>
Created by potrace 1.16, written by Peter Selinger 2001-2019
</metadata>
<g transform="translate(0.000000,2271.000000) scale(0.100000,-0.100000)"
fill="#000000" stroke="none">
<path d="M5974 17424 c-3283 -2908 -5970 -5292 -5972 -5298 -3 -11 1245 -1426
1257 -1426 4 0 2423 2140 5375 4755 l5368 4754 133 -117 c72 -64 2486 -2203
5364 -4752 2878 -2549 5236 -4636 5241 -4638 12 -4 1261 1410 1258 1424 -3 12
-11935 10584 -11945 10584 -4 0 -17 -10 -30 -22 l-23 -22 -16 22 c-8 12 -21
22 -28 22 -7 0 -2698 -2379 -5982 -5286z"/>
<path d="M3570 18928 c0 -2152 1 -2260 18 -2246 39 34 2939 2653 2966 2678
l29 28 13 829 c7 455 13 861 13 901 l1 72 -1520 0 -1520 0 0 -2262z"/>
<path d="M7783 14899 l-4213 -3732 0 -5366 c0 -5867 -5 -5412 56 -5535 55
-112 168 -208 291 -246 65 -20 89 -20 2744 -20 l2679 0 2 2382 3 2383 26 67
c67 173 183 278 355 323 51 13 332 15 2274 15 1957 0 2223 -2 2275 -15 170
-44 287 -151 354 -323 l26 -67 3 -2383 2 -2382 2679 0 c2644 0 2680 0 2743 20
168 52 301 197 337 368 8 38 11 1538 10 5420 l0 5367 -4205 3723 c-2313 2048
-4210 3725 -4217 3727 -7 3 -1908 -1674 -4224 -3726z"/>
</g>
</svg>
