<?xml version="1.0" standalone="no"?>
<!DOCTYPE svg PUBLIC "-//W3C//DTD SVG 20010904//EN"
 "http://www.w3.org/TR/2001/REC-SVG-20010904/DTD/svg10.dtd">
<svg version="1.0" xmlns="http://www.w3.org/2000/svg"
 width="512.000000pt" height="512.000000pt" viewBox="0 0 512.000000 512.000000"
 preserveAspectRatio="xMidYMid meet">

<g transform="translate(0.000000,512.000000) scale(0.100000,-0.100000)"
fill="#000000" stroke="none">
<path d="M2385 5113 c-336 -28 -636 -112 -940 -263 -193 -95 -324 -177 -475
-299 -407 -325 -704 -767 -844 -1253 -157 -548 -94 -1176 186 -1833 155 -365
411 -771 644 -1023 l49 -54 59 23 c36 13 79 40 107 66 l48 45 43 -29 c69 -47
125 -65 203 -65 39 0 83 5 98 11 16 6 30 11 31 11 2 0 14 -31 26 -69 18 -58
20 -75 11 -104 -34 -102 -169 -130 -431 -86 -252 41 -361 50 -745 56 l-381 6
-28 -24 c-38 -33 -40 -93 -3 -125 23 -20 37 -21 328 -27 336 -7 464 -15 804
-53 255 -29 348 -28 436 6 84 32 143 80 174 145 25 50 27 63 22 133 -3 51 -14
98 -31 139 -14 35 -26 66 -26 71 0 4 45 39 100 77 56 38 103 72 105 75 3 4
-19 23 -49 43 -197 131 -469 513 -715 1004 -206 412 -331 779 -331 968 l0 55
-86 -62 c-116 -85 -199 -161 -250 -230 -50 -68 -47 -73 -65 112 -15 158 -6
365 21 492 103 487 450 906 980 1182 479 249 1027 332 1564 235 847 -153 1513
-753 1651 -1489 19 -103 21 -348 4 -490 l-12 -98 -42 56 c-50 69 -133 145
-249 230 l-86 62 0 -54 c0 -181 -109 -510 -301 -904 -256 -528 -536 -930 -746
-1070 -29 -19 -53 -36 -53 -38 0 -2 42 -32 93 -67 193 -134 296 -179 402 -179
85 1 125 14 214 74 l73 49 43 -43 c23 -24 66 -56 95 -72 43 -24 54 -26 64 -15
7 8 44 52 83 99 427 517 726 1168 818 1782 114 753 -120 1473 -660 2027 -223
229 -446 392 -720 526 -301 147 -576 224 -910 255 -102 9 -308 11 -400 3z"/>
<path d="M2613 4080 c-69 -42 -68 -31 -71 -568 -3 -452 -4 -483 -20 -477 -9 3
-39 11 -66 16 -147 28 -302 -21 -415 -131 -293 -283 -136 -765 271 -831 183
-30 400 79 490 246 53 100 58 157 58 705 l0 500 59 0 c89 0 225 -27 295 -59
82 -37 139 -89 173 -159 25 -51 28 -67 28 -162 0 -79 -6 -125 -23 -188 -13
-45 -20 -87 -16 -93 8 -14 60 35 135 129 182 227 233 431 151 606 -94 202
-395 366 -840 460 -147 31 -167 32 -209 6z"/>
<path d="M993 2820 c-74 -30 -63 -200 31 -483 71 -213 136 -366 266 -622 234
-462 482 -810 665 -930 71 -47 105 -52 141 -21 l29 24 -1 124 c0 100 -5 142
-27 225 -72 274 -216 614 -384 913 -270 476 -592 822 -720 770z"/>
<path d="M4087 2820 c-47 -14 -148 -94 -232 -181 -315 -330 -666 -986 -802
-1504 -22 -81 -27 -123 -27 -223 l-1 -124 29 -24 c36 -31 70 -26 141 21 336
221 917 1284 1005 1839 23 149 -20 225 -113 196z"/>
</g>
</svg>
