<?xml version="1.0" standalone="no"?>
<!DOCTYPE svg PUBLIC "-//W3C//DTD SVG 20010904//EN"
 "http://www.w3.org/TR/2001/REC-SVG-20010904/DTD/svg10.dtd">
<svg version="1.0" xmlns="http://www.w3.org/2000/svg"
 width="225.000000pt" height="225.000000pt" viewBox="0 0 225.000000 225.000000"
 preserveAspectRatio="xMidYMid meet">
<metadata>
Created by potrace 1.16, written by Peter Selinger 2001-2019
</metadata>
<g transform="translate(0.000000,225.000000) scale(0.100000,-0.100000)"
fill="#000000" stroke="none">
<path d="M1299 2047 c-169 -48 -241 -254 -139 -396 131 -181 412 -124 460 94
6 27 8 67 4 90 -8 50 -45 123 -76 151 -63 58 -167 84 -249 61z"/>
<path d="M1742 2049 c-18 -5 -53 -29 -78 -53 -45 -44 -45 -44 -29 -70 14 -20
22 -24 45 -19 37 7 100 -23 165 -80 74 -65 110 -81 180 -81 63 0 143 21 128
34 -4 4 -24 13 -43 19 -19 6 -60 30 -90 52 -52 39 -53 41 -22 35 17 -3 32 -1
32 4 0 14 -69 67 -133 101 -52 28 -57 33 -41 42 17 10 17 11 -1 18 -27 10 -73
9 -113 -2z"/>
<path d="M237 1976 c-188 -68 -239 -306 -92 -435 53 -46 99 -63 172 -63 190
-1 312 200 227 371 -55 110 -193 167 -307 127z"/>
<path d="M1512 1535 c-72 -39 -130 -50 -192 -38 -39 7 -46 6 -71 -18 -37 -34
-94 -50 -214 -59 -55 -4 -94 -8 -87 -9 30 -3 7 -28 -48 -50 -33 -13 -60 -28
-60 -32 0 -5 22 -1 49 10 47 17 48 17 44 0 -5 -20 0 -22 92 -52 27 -9 52 -13
55 -9 3 4 57 8 120 9 125 1 234 22 289 54 18 11 35 18 38 16 6 -7 -65 -57 -96
-68 -21 -8 -31 -18 -33 -36 -2 -22 -12 -29 -54 -43 -86 -30 -117 -50 -196
-131 -59 -60 -75 -83 -71 -99 4 -14 -2 -29 -17 -45 l-22 -23 24 -15 c12 -8 41
-18 63 -22 31 -5 50 -18 86 -58 l46 -52 -28 -60 c-37 -77 -38 -124 -3 -159 15
-14 38 -26 51 -26 56 0 133 128 133 220 0 42 -38 112 -108 198 -19 24 -32 46
-29 49 9 9 57 -45 69 -77 11 -33 41 -40 72 -17 16 11 17 17 6 36 -14 28 -2 43
14 17 74 -122 160 -161 269 -121 37 13 38 13 21 -6 -9 -10 -32 -23 -51 -30
-27 -9 -33 -15 -28 -30 12 -37 -7 -80 -72 -162 -65 -82 -103 -145 -103 -169 1
-21 96 -130 141 -160 44 -29 96 -37 117 -16 21 21 13 63 -26 128 l-39 63 49
64 c93 124 119 204 95 298 l-14 56 86 89 c48 49 101 95 120 103 l33 14 -37 41
c-47 53 -154 106 -243 122 l-69 13 -5 126 c-9 206 -38 235 -166 166z"/>
<path d="M465 1461 c-32 -22 -51 -26 -137 -29 -87 -4 -98 -6 -93 -21 56 -141
85 -278 85 -396 0 -136 36 -225 136 -337 29 -33 32 -40 24 -69 -15 -51 -38
-78 -92 -107 -123 -66 -137 -106 -73 -212 49 -81 72 -95 156 -95 82 0 122 23
127 74 3 28 -1 33 -32 46 -19 8 -45 15 -57 15 -18 0 -11 11 41 67 118 126 135
204 86 392 -14 57 -23 108 -19 112 4 4 40 21 80 37 l71 30 4 -191 c4 -238 16
-272 92 -253 28 7 162 112 199 155 28 34 35 79 15 99 -20 20 -68 14 -116 -14
l-45 -27 6 24 c4 13 10 67 13 120 8 112 -6 186 -41 219 -27 25 -111 39 -187
30 l-48 -6 0 37 0 37 -97 33 c-54 18 -93 34 -88 36 11 3 310 -64 405 -92 56
-16 113 -13 138 8 7 6 20 24 29 40 18 35 11 42 -55 52 -26 4 -54 16 -67 29
-15 15 -28 20 -37 15 -7 -5 -28 -9 -46 -9 -48 0 -37 20 31 54 31 15 54 32 51
37 -7 12 -57 11 -89 -1 -22 -8 -32 -6 -56 11 -43 30 -134 60 -210 68 -60 6
-69 5 -104 -18z"/>
</g>
</svg>
