<?xml version="1.0" standalone="no"?>
<!DOCTYPE svg PUBLIC "-//W3C//DTD SVG 20010904//EN"
 "http://www.w3.org/TR/2001/REC-SVG-20010904/DTD/svg10.dtd">
<svg version="1.0" xmlns="http://www.w3.org/2000/svg"
 width="200.000000pt" height="200.000000pt" viewBox="0 0 200.000000 200.000000"
 preserveAspectRatio="xMidYMid meet">
<metadata>
Created by potrace 1.16, written by Peter Selinger 2001-2019
</metadata>
<g transform="translate(0.000000,200.000000) scale(0.100000,-0.100000)"
fill="#000000" stroke="none">
<path d="M886 1890 c-81 -22 -154 -45 -162 -51 -16 -13 -18 -50 -5 -97 9 -30
8 -32 -12 -27 -12 2 -94 14 -181 25 -118 16 -166 27 -185 41 -27 20 -28 20
-161 -2 -159 -26 -180 -36 -180 -84 0 -30 30 -240 46 -318 8 -39 30 -57 70
-57 31 0 34 -2 34 -30 0 -28 -2 -30 -38 -30 -27 0 -45 -7 -58 -21 -18 -20 -19
-44 -19 -576 l0 -555 24 -19 c22 -18 53 -19 962 -19 926 0 939 0 959 20 20 20
20 33 20 579 l0 560 -22 15 c-12 9 -41 16 -65 16 -32 0 -43 4 -48 19 -3 12 19
89 55 191 77 218 80 207 -85 266 -175 62 -194 59 -226 -35 l-16 -46 -7 36
c-13 71 -31 73 -217 34 -124 -26 -149 -38 -149 -76 0 -9 11 -71 25 -139 14
-68 25 -125 25 -127 0 -3 -12 9 -26 26 -36 43 -77 51 -260 51 l-162 0 -6 25
c-4 15 -16 27 -31 31 -20 5 -25 13 -25 36 0 27 1 28 16 14 8 -9 22 -16 30 -16
28 0 339 81 351 92 7 6 13 23 13 38 0 35 -49 221 -62 238 -16 19 -62 13 -222
-28z m213 -27 c32 -122 41 -163 41 -181 0 -16 -14 -23 -77 -40 -196 -52 -254
-65 -264 -55 -12 12 -59 179 -59 210 0 24 -6 22 190 74 147 38 157 38 169 -8z
m-757 -203 c9 -52 18 -109 21 -127 l6 -32 -87 6 c-104 7 -112 1 -127 -91 -8
-50 -14 -62 -31 -64 -11 -2 -26 3 -31 10 -6 7 -21 74 -32 148 -12 74 -24 146
-26 160 -3 14 -1 31 3 38 10 15 199 51 252 49 l35 -2 17 -95z m1473 47 c85
-30 121 -47 123 -60 2 -9 -16 -72 -40 -139 -40 -114 -43 -119 -46 -81 -2 23
-11 48 -21 57 -20 18 -191 79 -200 71 -8 -9 12 -22 54 -36 l40 -14 -45 -5
c-25 -3 -48 -4 -52 -3 -3 2 -9 26 -13 54 -6 42 -2 64 20 125 19 51 32 74 44
74 9 0 70 -19 136 -43z m-1236 -7 c77 -10 139 -24 147 -32 11 -11 12 -28 6
-76 -5 -34 -11 -64 -14 -67 -3 -3 -22 -9 -42 -12 -34 -5 -37 -3 -47 26 -13 36
-16 37 -40 15 -20 -18 -14 -26 -65 98 -10 27 -22 48 -25 48 -3 0 -27 -27 -53
-60 -44 -56 -66 -68 -66 -35 0 7 10 15 22 17 12 2 29 15 37 30 14 24 14 28 -3
47 -23 26 -29 26 143 1z m966 11 c9 -15 47 -212 42 -217 -3 -3 -49 -10 -103
-16 -129 -15 -147 -30 -137 -117 4 -43 2 -61 -6 -61 -6 0 -16 10 -21 23 -17
42 -70 331 -62 339 10 10 214 56 254 57 15 1 29 -3 33 -8z m-765 -236 c7 -8 9
-16 4 -16 -5 -1 -25 -3 -44 -5 -19 -2 -73 -11 -120 -19 -47 -8 -88 -15 -92
-15 -5 0 -8 -5 -8 -11 0 -12 20 -10 129 7 31 5 42 4 37 -4 -3 -6 -40 -16 -81
-23 -94 -15 -101 -34 -9 -24 81 8 80 -9 -1 -20 -35 -4 -55 -11 -55 -19 0 -10
10 -11 43 -5 56 11 67 11 67 -1 0 -5 -23 -12 -50 -16 -48 -6 -69 -17 -53 -27
5 -3 28 -1 53 3 25 5 47 6 50 4 11 -12 -30 -24 -81 -24 l-56 0 -13 86 c-7 50
-9 89 -3 95 7 7 203 44 254 48 9 0 22 -6 29 -14z m-392 -11 c59 -5 72 -10 67
-22 -5 -13 5 -90 20 -159 3 -13 1 -23 -5 -23 -5 0 -10 14 -10 30 0 26 -5 31
-30 37 -16 3 -31 11 -31 17 -1 6 -2 31 -3 56 l-1 45 -40 0 c-40 0 -40 0 -46
-43 -6 -50 -14 -59 -54 -64 -25 -2 -31 -8 -33 -32 -2 -16 2 -32 10 -37 9 -6 2
-9 -19 -9 -18 0 -33 3 -33 8 2 49 20 194 25 203 5 7 25 9 59 5 28 -3 84 -9
124 -12z m1416 -6 c8 -13 17 -62 21 -110 l7 -88 -25 0 c-19 0 -34 12 -58 45
-18 25 -36 45 -40 45 -4 0 -10 -12 -13 -26 -7 -25 -9 -23 -59 44 -29 39 -55
71 -60 72 -4 0 -15 -16 -24 -35 l-17 -36 -13 24 c-14 28 -40 37 -70 26 -27
-10 -37 -42 -23 -70 10 -17 19 -20 50 -17 l38 3 -14 -34 c-8 -18 -14 -35 -14
-37 0 -2 -22 -4 -49 -4 l-49 0 -7 76 c-5 53 -4 79 4 87 7 7 96 22 199 33 103
12 190 22 194 23 4 0 14 -9 22 -21z m-654 -168 l0 -30 -144 0 c-122 0 -145 2
-150 16 -16 43 -13 44 144 44 l150 0 0 -30z"/>
<path d="M875 1814 c-6 -36 -7 -36 -21 -15 -30 43 -93 16 -80 -34 5 -19 13
-25 34 -25 15 0 33 5 40 12 15 15 15 15 -8 -61 -11 -35 -19 -65 -17 -67 1 -2
28 4 60 12 31 8 76 16 99 18 54 4 128 24 128 34 0 4 -20 28 -45 52 -41 40 -46
43 -58 27 -11 -16 -17 -13 -62 33 -27 27 -52 50 -56 50 -4 0 -10 -16 -14 -36z"/>
<path d="M1393 1680 c-26 -10 -27 -17 -13 -56 14 -37 5 -60 -30 -73 -32 -11
-39 -35 -17 -64 9 -12 20 -14 47 -8 29 6 35 12 34 32 0 13 -3 33 -7 45 -4 12
-1 28 7 40 14 18 16 18 32 2 9 -9 18 -31 19 -48 4 -41 13 -49 53 -43 38 6 47
21 38 59 -5 20 -12 25 -34 23 -37 -4 -52 7 -52 41 0 58 -21 72 -77 50z"/>
</g>
</svg>
