<?xml version="1.0" standalone="no"?>
<!DOCTYPE svg PUBLIC "-//W3C//DTD SVG 20010904//EN"
 "http://www.w3.org/TR/2001/REC-SVG-20010904/DTD/svg10.dtd">
<svg version="1.0" xmlns="http://www.w3.org/2000/svg"
 width="260.000000pt" height="260.000000pt" viewBox="0 0 260.000000 260.000000"
 preserveAspectRatio="xMidYMid meet">
<metadata>
Created by potrace 1.16, written by Peter Selinger 2001-2019
</metadata>
<g transform="translate(0.000000,260.000000) scale(0.100000,-0.100000)"
fill="#000000" stroke="none">
<path d="M1184 2462 c-108 -38 -200 -133 -239 -247 -22 -65 -22 -196 0 -295
37 -165 125 -294 241 -351 58 -29 70 -31 133 -27 190 14 333 212 357 495 15
180 -65 331 -218 409 -70 36 -197 44 -274 16z m-24 -254 c40 -12 98 -20 150
-21 72 -1 94 3 142 25 l57 27 32 -64 c17 -35 34 -85 37 -110 l5 -46 23 22 24
22 0 -29 c0 -54 -29 -167 -59 -230 -102 -218 -327 -271 -467 -111 -48 56 -102
169 -116 245 -13 67 -9 79 19 64 17 -9 18 -4 18 87 0 77 4 103 18 125 13 20
23 26 35 20 9 -4 46 -16 82 -26z"/>
<path d="M928 1589 c-63 -15 -158 -68 -210 -117 -45 -42 -108 -122 -108 -136
0 -3 119 -6 265 -6 146 0 265 2 265 4 0 3 -23 42 -52 88 -28 46 -59 103 -69
128 -18 49 -30 54 -91 39z"/>
<path d="M1591 1564 c-7 -20 -42 -79 -77 -132 -35 -52 -64 -97 -64 -99 0 -2
122 -3 270 -3 149 0 270 3 270 6 0 33 -91 136 -162 183 -55 38 -167 81 -207
81 -10 0 -22 -14 -30 -36z"/>
<path d="M1190 1476 c0 -8 14 -31 30 -49 20 -23 30 -45 30 -66 0 -30 1 -31 45
-31 l45 0 0 39 c0 25 5 41 14 44 16 6 50 66 43 74 -3 2 -25 -1 -48 -7 -42 -11
-104 -9 -142 6 -12 4 -17 1 -17 -10z"/>
<path d="M495 1303 c-116 -4 -137 -12 -156 -60 -6 -16 11 -114 57 -330 36
-170 81 -380 99 -468 27 -127 38 -164 56 -177 20 -17 70 -18 751 -18 l730 0
21 24 c15 17 33 84 73 272 29 137 72 339 96 449 23 110 42 213 41 228 0 17
-11 40 -27 55 l-26 27 -803 1 c-441 0 -851 -1 -912 -3z"/>
<path d="M492 208 c-16 -16 -15 -33 4 -52 14 -14 100 -16 804 -16 704 0 790 2
804 16 19 19 20 36 4 52 -17 17 -1599 17 -1616 0z"/>
</g>
</svg>
